<?xml version="1.0"?>
<svg xmlns="http://www.w3.org/2000/svg" version="1.1" width="1429.47644042969pt" height="493.892150878906pt" viewBox="-512.74965163859 -406.671423493445 1429.476483238 493.89215572549" preserveAspectRatio="none" xmlns:xlink="http://www.w3.org/1999/xlink">
  <defs>
  </defs>
  <path d="M0.930107116699219,-189.555236816406 L10.095440864563,-189.547210693359 " stroke="#6E6E6E" fill="none" stroke-width="1" stroke-opacity="1" />
  <path d="M15.7954387664795,-189.542236328125 L10.0934972763062,-187.327224731445 L10.0973844528198,-191.767211914063 L15.7954387664795,-189.542236328125 " stroke="none" fill="#6E6E6E" fill-rule="evenodd" stroke-width="0" fill-opacity="1" />
  <path d="M15.7954387664795,-189.542236328125 L10.0934972763062,-187.327224731445 L10.0973844528198,-191.767211914063 L15.7954387664795,-189.542236328125 " stroke="#6E6E6E" fill="none" stroke-width="1" stroke-opacity="1" />
  <path d="M90.792854309082,-254.867385864258 L102.732475280762,-254.946166992188 " stroke="#6E6E6E" fill="none" stroke-width="1" stroke-opacity="1" />
  <path d="M108.432357788086,-254.983779907227 L102.747131347656,-252.726211547852 L102.717834472656,-257.166137695313 L108.432357788086,-254.983779907227 " stroke="none" fill="#6E6E6E" fill-rule="evenodd" stroke-width="0" fill-opacity="1" />
  <path d="M108.432357788086,-254.983779907227 L102.747131347656,-252.726211547852 L102.717834472656,-257.166137695313 L108.432357788086,-254.983779907227 " stroke="#6E6E6E" fill="none" stroke-width="1" stroke-opacity="1" />
  <path d="M53.2111167907715,-213.195648193359 L53.3219413757324,-225.222152709961 " stroke="#6E6E6E" fill="none" stroke-width="1" stroke-opacity="1" />
  <path d="M53.3744621276855,-230.921920776367 L55.5418472290039,-225.201705932617 L51.1020355224609,-225.242614746094 L53.3744621276855,-230.921920776367 " stroke="none" fill="#6E6E6E" fill-rule="evenodd" stroke-width="0" fill-opacity="1" />
  <path d="M53.3744621276855,-230.921920776367 L55.5418472290039,-225.201705932617 L51.1020355224609,-225.242614746094 L53.3744621276855,-230.921920776367 " stroke="#6E6E6E" fill="none" stroke-width="1" stroke-opacity="1" />
  <path d="M0.74256706237793,-320.726867675781 L12.0292978286743,-320.537750244141 " stroke="#6E6E6E" fill="none" stroke-width="1" stroke-opacity="1" />
  <path d="M17.7284965515137,-320.442230224609 L11.9921026229858,-318.318054199219 L12.0664920806885,-322.757415771484 L17.7284965515137,-320.442230224609 " stroke="none" fill="#6E6E6E" fill-rule="evenodd" stroke-width="0" fill-opacity="1" />
  <path d="M17.7284965515137,-320.442230224609 L11.9921026229858,-318.318054199219 L12.0664920806885,-322.757415771484 L17.7284965515137,-320.442230224609 " stroke="#6E6E6E" fill="none" stroke-width="1" stroke-opacity="1" />
  <path d="M54.4121627807617,-296.149719238281 L54.1728744506836,-284.020812988281 " stroke="#6E6E6E" fill="none" stroke-width="1" stroke-opacity="1" />
  <path d="M54.0604362487793,-278.321929931641 L51.9533042907715,-284.064605712891 L56.3924407958984,-283.977020263672 L54.0604362487793,-278.321929931641 " stroke="none" fill="#6E6E6E" fill-rule="evenodd" stroke-width="0" fill-opacity="1" />
  <path d="M54.0604362487793,-278.321929931641 L51.9533042907715,-284.064605712891 L56.3924407958984,-283.977020263672 L54.0604362487793,-278.321929931641 " stroke="#6E6E6E" fill="none" stroke-width="1" stroke-opacity="1" />
  <path d="M276.2919921875,-254.37776184082 L288.92138671875,-254.159225463867 " stroke="#6E6E6E" fill="none" stroke-width="1" stroke-opacity="1" />
  <path d="M294.620574951172,-254.060607910156 L288.882995605469,-251.939559936523 L288.959838867188,-256.37890625 L294.620574951172,-254.060607910156 " stroke="none" fill="#6E6E6E" fill-rule="evenodd" stroke-width="0" fill-opacity="1" />
  <path d="M294.620574951172,-254.060607910156 L288.882995605469,-251.939559936523 L288.959838867188,-256.37890625 L294.620574951172,-254.060607910156 " stroke="#6E6E6E" fill="none" stroke-width="1" stroke-opacity="1" />
  <path d="M182.806365966797,-255.146514892578 L196.192031860352,-255.116775512695 " stroke="#6E6E6E" fill="none" stroke-width="1" stroke-opacity="1" />
  <path d="M201.892013549805,-255.104110717773 L196.187088012695,-252.896774291992 L196.196960449219,-257.336761474609 L201.892013549805,-255.104110717773 " stroke="none" fill="#6E6E6E" fill-rule="evenodd" stroke-width="0" fill-opacity="1" />
  <path d="M201.892013549805,-255.104110717773 L196.187088012695,-252.896774291992 L196.196960449219,-257.336761474609 L201.892013549805,-255.104110717773 " stroke="#6E6E6E" fill="none" stroke-width="1" stroke-opacity="1" />
  <path d="M550.952392578125,-39.4882621765137 L550.95654296875,-31.5576496124268 " stroke="#6E6E6E" fill="none" stroke-width="1" stroke-opacity="1" />
  <path d="M550.959594726563,-25.8592395782471 L548.739562988281,-31.5592403411865 L553.179565429688,-31.5592403411865 L550.959594726563,-25.8592395782471 " stroke="none" fill="#6E6E6E" fill-rule="evenodd" stroke-width="0" fill-opacity="1" />
  <path d="M550.959594726563,-25.8592395782471 L548.739562988281,-31.5592403411865 L553.179565429688,-31.5592403411865 L550.959594726563,-25.8592395782471 " stroke="#6E6E6E" fill="none" stroke-width="1" stroke-opacity="1" />
  <path d="M350.202423095703,-3.51899456977844 L334.121520996094,-3.31168174743652 " stroke="#6E6E6E" fill="none" stroke-width="1" stroke-opacity="1" />
  <path d="M328.421997070313,-3.23820424079895 L334.092926025391,-5.53149747848511 L334.150146484375,-1.09186613559723 L328.421997070313,-3.23820424079895 " stroke="none" fill="#6E6E6E" fill-rule="evenodd" stroke-width="0" fill-opacity="1" />
  <path d="M328.421997070313,-3.23820424079895 L334.092926025391,-5.53149747848511 L334.150146484375,-1.09186613559723 L328.421997070313,-3.23820424079895 " stroke="#6E6E6E" fill="none" stroke-width="1" stroke-opacity="1" />
  <path d="M513.825378417969,-2.83024096488953 L502.483703613281,-3.03535056114197 " stroke="#6E6E6E" fill="none" stroke-width="1" stroke-opacity="1" />
  <path d="M496.784637451172,-3.13841581344604 L502.523834228516,-5.25498819351196 L502.443572998047,-0.815713405609131 L496.784637451172,-3.13841581344604 " stroke="none" fill="#6E6E6E" fill-rule="evenodd" stroke-width="0" fill-opacity="1" />
  <path d="M496.784637451172,-3.13841581344604 L502.523834228516,-5.25498819351196 L502.443572998047,-0.815713405609131 L496.784637451172,-3.13841581344604 " stroke="#6E6E6E" fill="none" stroke-width="1" stroke-opacity="1" />
  <path d="M-112.886833190918,-321.295562744141 L-100.5263671875,-321.339111328125 " stroke="#6E6E6E" fill="none" stroke-width="1" stroke-opacity="1" />
  <path d="M-94.8264083862305,-321.359222412109 L-100.518547058105,-319.119140625 L-100.534194946289,-323.559143066406 L-94.8264083862305,-321.359222412109 " stroke="none" fill="#6E6E6E" fill-rule="evenodd" stroke-width="0" fill-opacity="1" />
  <path d="M-94.8264083862305,-321.359222412109 L-100.518547058105,-319.119140625 L-100.534194946289,-323.559143066406 L-94.8264083862305,-321.359222412109 " stroke="#6E6E6E" fill="none" stroke-width="1" stroke-opacity="1" />
  <path d="M-91.7427749633789,-189.41552734375 L-79.1698608398438,-189.454574584961 " stroke="#6E6E6E" fill="none" stroke-width="1" stroke-opacity="1" />
  <path d="M-73.4698944091797,-189.472274780273 L-79.1629791259766,-187.234588623047 L-79.1767654418945,-191.674575805664 L-73.4698944091797,-189.472274780273 " stroke="none" fill="#6E6E6E" fill-rule="evenodd" stroke-width="0" fill-opacity="1" />
  <path d="M-73.4698944091797,-189.472274780273 L-79.1629791259766,-187.234588623047 L-79.1767654418945,-191.674575805664 L-73.4698944091797,-189.472274780273 " stroke="#6E6E6E" fill="none" stroke-width="1" stroke-opacity="1" />
  <path d="M377.794921875,-186.125244140625 L391.06396484375,-186.119400024414 " stroke="#6E6E6E" fill="none" stroke-width="1" stroke-opacity="1" />
  <path d="M396.763946533203,-186.116912841797 L391.06298828125,-183.8994140625 L391.06494140625,-188.339416503906 L396.763946533203,-186.116912841797 " stroke="none" fill="#6E6E6E" fill-rule="evenodd" stroke-width="0" fill-opacity="1" />
  <path d="M396.763946533203,-186.116912841797 L391.06298828125,-183.8994140625 L391.06494140625,-188.339416503906 L396.763946533203,-186.116912841797 " stroke="#6E6E6E" fill="none" stroke-width="1" stroke-opacity="1" />
  <path d="M331.177154541016,-229.755844116211 L331.000854492188,-222.715377807617 " stroke="#6E6E6E" fill="none" stroke-width="1" stroke-opacity="1" />
  <path d="M330.858184814453,-217.017166137695 L328.781555175781,-222.770950317383 L333.220184326172,-222.659805297852 L330.858184814453,-217.017166137695 " stroke="none" fill="#6E6E6E" fill-rule="evenodd" stroke-width="0" fill-opacity="1" />
  <path d="M330.858184814453,-217.017166137695 L328.781555175781,-222.770950317383 L333.220184326172,-222.659805297852 L330.858184814453,-217.017166137695 " stroke="#6E6E6E" fill="none" stroke-width="1" stroke-opacity="1" />
  <path d="M472.646575927734,-252.89680480957 L507.146331787109,-252.655380249023 " stroke="#6E6E6E" fill="none" stroke-width="1" stroke-opacity="1" />
  <path d="M512.84619140625,-252.615493774414 L507.130767822266,-250.435440063477 L507.161865234375,-254.875335693359 L512.84619140625,-252.615493774414 " stroke="none" fill="#6E6E6E" fill-rule="evenodd" stroke-width="0" fill-opacity="1" />
  <path d="M512.84619140625,-252.615493774414 L507.130767822266,-250.435440063477 L507.161865234375,-254.875335693359 L512.84619140625,-252.615493774414 " stroke="#6E6E6E" fill="none" stroke-width="1" stroke-opacity="1" />
  <path d="M368.962188720703,-253.324295043945 L392.546569824219,-253.264984130859 " stroke="#6E6E6E" fill="none" stroke-width="1" stroke-opacity="1" />
  <path d="M398.246551513672,-253.25065612793 L392.540985107422,-251.044998168945 L392.552154541016,-255.484985351563 L398.246551513672,-253.25065612793 " stroke="none" fill="#6E6E6E" fill-rule="evenodd" stroke-width="0" fill-opacity="1" />
  <path d="M398.246551513672,-253.25065612793 L392.540985107422,-251.044998168945 L392.552154541016,-255.484985351563 L398.246551513672,-253.25065612793 " stroke="#6E6E6E" fill="none" stroke-width="1" stroke-opacity="1" />
  <path d="M549.938903808594,-163.097686767578 L550.044311523438,-157.264739990234 " stroke="#6E6E6E" fill="none" stroke-width="1" stroke-opacity="1" />
  <path d="M550.147338867188,-151.565673828125 L547.824645996094,-157.224624633789 L552.263977050781,-157.30485534668 L550.147338867188,-151.565673828125 " stroke="none" fill="#6E6E6E" fill-rule="evenodd" stroke-width="0" fill-opacity="1" />
  <path d="M550.147338867188,-151.565673828125 L547.824645996094,-157.224624633789 L552.263977050781,-157.30485534668 L550.147338867188,-151.565673828125 " stroke="#6E6E6E" fill="none" stroke-width="1" stroke-opacity="1" />
  <path d="M471.144866943359,-186.324890136719 L506.610717773438,-186.538864135742 " stroke="#6E6E6E" fill="none" stroke-width="1" stroke-opacity="1" />
  <path d="M512.310546875,-186.573257446289 L506.624053955078,-184.318908691406 L506.597259521484,-188.758834838867 L512.310546875,-186.573257446289 " stroke="none" fill="#6E6E6E" fill-rule="evenodd" stroke-width="0" fill-opacity="1" />
  <path d="M512.310546875,-186.573257446289 L506.624053955078,-184.318908691406 L506.597259521484,-188.758834838867 L512.310546875,-186.573257446289 " stroke="#6E6E6E" fill="none" stroke-width="1" stroke-opacity="1" />
  <path d="M549.839477539063,-228.667266845703 L549.741577148438,-216.197509765625 " stroke="#6E6E6E" fill="none" stroke-width="1" stroke-opacity="1" stroke-dasharray="3,1,1,1,1,1" />
  <path d="M549.69677734375,-210.497695922852 L547.521606445313,-216.214950561523 L551.961486816406,-216.180084228516 L549.69677734375,-210.497695922852 " stroke="none" fill="#6E6E6E" fill-rule="evenodd" stroke-width="0" fill-opacity="1" />
  <path d="M549.69677734375,-210.497695922852 L547.521606445313,-216.214950561523 L551.961486816406,-216.180084228516 L549.69677734375,-210.497695922852 " stroke="#6E6E6E" fill="none" stroke-width="1" stroke-opacity="1" />
  <path d="M550.75,-99.7459182739258 L550.787170410156,-92.5881881713867 " stroke="#6E6E6E" fill="none" stroke-width="1" stroke-opacity="1" />
  <path d="M550.816711425781,-86.8882675170898 L548.567138671875,-92.57666015625 L553.007080078125,-92.5997161865234 L550.816711425781,-86.8882675170898 " stroke="none" fill="#6E6E6E" fill-rule="evenodd" stroke-width="0" fill-opacity="1" />
  <path d="M550.816711425781,-86.8882675170898 L548.567138671875,-92.57666015625 L553.007080078125,-92.5997161865234 L550.816711425781,-86.8882675170898 " stroke="#6E6E6E" fill="none" stroke-width="1" stroke-opacity="1" />
  <path d="M158.2021484375,-2.63499641418457 L141.151962280273,-2.64470028877258 " stroke="#6E6E6E" fill="none" stroke-width="1" stroke-opacity="1" />
  <path d="M135.451950073242,-2.647944688797 L141.153213500977,-4.86470031738281 L141.150695800781,-0.424700766801834 L135.451950073242,-2.647944688797 " stroke="none" fill="#6E6E6E" fill-rule="evenodd" stroke-width="0" fill-opacity="1" />
  <path d="M135.451950073242,-2.647944688797 L141.153213500977,-4.86470031738281 L141.150695800781,-0.424700766801834 L135.451950073242,-2.647944688797 " stroke="#6E6E6E" fill="none" stroke-width="1" stroke-opacity="1" />
  <path d="M254.064468383789,-2.70273852348328 L238.302154541016,-2.67884755134583 " stroke="#6E6E6E" fill="none" stroke-width="1" stroke-opacity="1" />
  <path d="M232.602157592773,-2.67020845413208 L238.298782348633,-4.89884567260742 L238.305511474609,-0.458850175142288 L232.602157592773,-2.67020845413208 " stroke="none" fill="#6E6E6E" fill-rule="evenodd" stroke-width="0" fill-opacity="1" />
  <path d="M232.602157592773,-2.67020845413208 L238.298782348633,-4.89884567260742 L238.305511474609,-0.458850175142288 L232.602157592773,-2.67020845413208 " stroke="#6E6E6E" fill="none" stroke-width="1" stroke-opacity="1" />
  <path d="M-50.8703155517578,-2.87470626831055 L-67.9202651977539,-2.88297605514526 " stroke="#6E6E6E" fill="none" stroke-width="1" stroke-opacity="1" />
  <path d="M-73.6202697753906,-2.8857409954071 L-67.919189453125,-5.10297632217407 L-67.9213485717773,-0.662976324558258 L-73.6202697753906,-2.8857409954071 " stroke="none" fill="#6E6E6E" fill-rule="evenodd" stroke-width="0" fill-opacity="1" />
  <path d="M-73.6202697753906,-2.8857409954071 L-67.919189453125,-5.10297632217407 L-67.9213485717773,-0.662976324558258 L-73.6202697753906,-2.8857409954071 " stroke="#6E6E6E" fill="none" stroke-width="1" stroke-opacity="1" />
  <path d="M61.058765411377,-2.73379588127136 L40.5282440185547,-2.76949763298035 " stroke="#6E6E6E" fill="none" stroke-width="1" stroke-opacity="1" />
  <path d="M34.8282508850098,-2.77940988540649 L40.5321044921875,-4.98949480056763 L40.5243835449219,-0.549501061439514 L34.8282508850098,-2.77940988540649 " stroke="none" fill="#6E6E6E" fill-rule="evenodd" stroke-width="0" fill-opacity="1" />
  <path d="M34.8282508850098,-2.77940988540649 L40.5321044921875,-4.98949480056763 L40.5243835449219,-0.549501061439514 L34.8282508850098,-2.77940988540649 " stroke="#6E6E6E" fill="none" stroke-width="1" stroke-opacity="1" />
  <path d="M-64.9659576416016,-213.287796020508 L-7.57383728027344,-213.287796020508 L-7.5738525390625,-213.287796020508 C-2.87726593017578,-213.287811279297 0.930091857910156,-209.48046875 0.930091857910156,-204.783874511719 C0.930091857910156,-204.783874511719 0.930091857910156,-204.78385925293 0.930091857910156,-204.78385925293 L0.930099487304688,-204.78385925293 L0.930099487304688,-174.391738891602 L0.930091857910156,-174.391738891602 C0.930091857910156,-169.69514465332 -2.87724304199219,-165.887802124023 -7.57383728027344,-165.887802124023 L-7.57383728027344,-165.887802124023 L-64.9659576416016,-165.887802124023 L-64.9659576416016,-165.887802124023 C-69.6625518798828,-165.887802124023 -73.4698944091797,-169.69514465332 -73.4698944091797,-174.391738891602 L-73.4698944091797,-204.78385925293 L-73.4699020385742,-204.78385925293 C-73.4699020385742,-209.480453491211 -69.6625671386719,-213.287796020508 -64.9659729003906,-213.287811279297 " stroke="none" fill="#E7E7E7" fill-rule="evenodd" stroke-width="0" fill-opacity="1" />
  <text x="1.72618901729584" y="23.0967178344727" dx="0" dy="0" font-family="Arial" font-size="7.20000017166138pt" fill="#000000" style="text-anchor:start" transform="matrix(0.750000 0.000000 0.000000 0.750000 -73.4698944091797 -213.287796020508)">Buffer site points </text>
  <text x="17.9568557739258" y="36.8967208862305" dx="0" dy="0" font-family="Arial" font-size="7.20000017166138pt" fill="#000000" style="text-anchor:start" transform="matrix(0.750000 0.000000 0.000000 0.750000 -73.4698944091797 -213.287796020508)">(1, 3, and 5 </text>
  <text x="29.3101902008057" y="50.696720123291" dx="0" dy="0" font-family="Arial" font-size="7.20000017166138pt" fill="#000000" style="text-anchor:start" transform="matrix(0.750000 0.000000 0.000000 0.750000 -73.4698944091797 -213.287796020508)">miles)</text>
  <path d="M-64.9659576416016,-213.287796020508 L-7.57383728027344,-213.287796020508 L-7.5738525390625,-213.287796020508 C-2.87726593017578,-213.287811279297 0.930091857910156,-209.48046875 0.930091857910156,-204.783874511719 C0.930091857910156,-204.783874511719 0.930091857910156,-204.78385925293 0.930091857910156,-204.78385925293 L0.930099487304688,-204.78385925293 L0.930099487304688,-174.391738891602 L0.930091857910156,-174.391738891602 C0.930091857910156,-169.69514465332 -2.87724304199219,-165.887802124023 -7.57383728027344,-165.887802124023 L-7.57383728027344,-165.887802124023 L-64.9659576416016,-165.887802124023 L-64.9659576416016,-165.887802124023 C-69.6625518798828,-165.887802124023 -73.4698944091797,-169.69514465332 -73.4698944091797,-174.391738891602 L-73.4698944091797,-204.78385925293 L-73.4699020385742,-204.78385925293 C-73.4699020385742,-209.480453491211 -69.6625671386719,-213.287796020508 -64.9659729003906,-213.287811279297 " stroke="none" fill="none" stroke-width="0.6" stroke-opacity="0" />
  <path d="M90.1928405761719,-189.509674072266 C90.1928405761719,-176.420516967773 73.5378341674805,-165.809661865234 52.9928703308105,-165.809661865234 C32.447883605957,-165.809661865234 15.792872428894,-176.420501708984 15.7928552627563,-189.509643554688 L15.7928524017334,-189.509643554688 C15.7928352355957,-202.59880065918 32.4478302001953,-213.209655761719 52.9928207397461,-213.209655761719 C73.5378112792969,-213.209671020508 90.1928176879883,-202.598831176758 90.1928405761719,-189.509658813477 C90.1928405761719,-189.509658813477 90.1928405761719,-189.509658813477 90.1928405761719,-189.509658813477 " stroke="none" fill="#E7E7E7" fill-rule="evenodd" stroke-width="0" fill-opacity="1" />
  <text x="12.0661888122559" y="36.8967208862305" dx="0" dy="0" font-family="Arial" font-size="7.20000017166138pt" fill="#000000" style="text-anchor:start" transform="matrix(0.750000 0.000000 0.000000 0.750000 15.7928581237793 -213.209655761719)">Points Buffer</text>
  <path d="M90.1928405761719,-189.509674072266 C90.1928405761719,-176.420516967773 73.5378341674805,-165.809661865234 52.9928703308105,-165.809661865234 C32.447883605957,-165.809661865234 15.792872428894,-176.420501708984 15.7928552627563,-189.509643554688 L15.7928524017334,-189.509643554688 C15.7928352355957,-202.59880065918 32.4478302001953,-213.209655761719 52.9928207397461,-213.209655761719 C73.5378112792969,-213.209671020508 90.1928176879883,-202.598831176758 90.1928405761719,-189.509658813477 C90.1928405761719,-189.509658813477 90.1928405761719,-189.509658813477 90.1928405761719,-189.509658813477 " stroke="none" fill="none" stroke-width="0.6" stroke-opacity="0" />
  <path d="M24.8967933654785,-278.321899414063 L82.2889099121094,-278.321899414063 L82.2888946533203,-278.321899414063 C86.985481262207,-278.321929931641 90.792839050293,-274.514587402344 90.792839050293,-269.817993164063 C90.792839050293,-269.817993164063 90.792839050293,-269.817962646484 90.792839050293,-269.817962646484 L90.7928466796875,-269.817962646484 L90.7928466796875,-239.425842285156 L90.792839050293,-239.425842285156 C90.792839050293,-234.729248046875 86.9855041503906,-230.921905517578 82.2889099121094,-230.921905517578 L82.2889099121094,-230.921905517578 L24.8967933654785,-230.921905517578 L24.8967971801758,-230.921905517578 C20.2002029418945,-230.921905517578 16.392858505249,-234.729248046875 16.3928565979004,-239.425842285156 L16.3928565979004,-269.817962646484 L16.3928546905518,-269.817962646484 C16.3928508758545,-274.514556884766 20.2001895904541,-278.321899414063 24.8967838287354,-278.321929931641 " stroke="none" fill="#E7E7E7" fill-rule="evenodd" stroke-width="0" fill-opacity="1" />
  <text x="7.29018926620483" y="16.196720123291" dx="0" dy="0" font-family="Arial" font-size="7.20000017166138pt" fill="#000000" style="text-anchor:start" transform="matrix(0.750000 0.000000 0.000000 0.750000 16.3928565979004 -278.321899414063)">Intersect Points </text>
  <text x="18.0728569030762" y="29.9967193603516" dx="0" dy="0" font-family="Arial" font-size="7.20000017166138pt" fill="#000000" style="text-anchor:start" transform="matrix(0.750000 0.000000 0.000000 0.750000 16.3928565979004 -278.321899414063)">Buffer with </text>
  <text x="22.6301898956299" y="43.7967185974121" dx="0" dy="0" font-family="Arial" font-size="7.20000017166138pt" fill="#000000" style="text-anchor:start" transform="matrix(0.750000 0.000000 0.000000 0.750000 16.3928565979004 -278.321899414063)">Modified </text>
  <text x="24.6261901855469" y="57.5967178344727" dx="0" dy="0" font-family="Arial" font-size="7.20000017166138pt" fill="#000000" style="text-anchor:start" transform="matrix(0.750000 0.000000 0.000000 0.750000 16.3928565979004 -278.321899414063)">Polygon</text>
  <path d="M24.8967933654785,-278.321899414063 L82.2889099121094,-278.321899414063 L82.2888946533203,-278.321899414063 C86.985481262207,-278.321929931641 90.792839050293,-274.514587402344 90.792839050293,-269.817993164063 C90.792839050293,-269.817993164063 90.792839050293,-269.817962646484 90.792839050293,-269.817962646484 L90.7928466796875,-269.817962646484 L90.7928466796875,-239.425842285156 L90.792839050293,-239.425842285156 C90.792839050293,-234.729248046875 86.9855041503906,-230.921905517578 82.2889099121094,-230.921905517578 L82.2889099121094,-230.921905517578 L24.8967933654785,-230.921905517578 L24.8967971801758,-230.921905517578 C20.2002029418945,-230.921905517578 16.392858505249,-234.729248046875 16.3928565979004,-239.425842285156 L16.3928565979004,-269.817962646484 L16.3928546905518,-269.817962646484 C16.3928508758545,-274.514556884766 20.2001895904541,-278.321899414063 24.8967838287354,-278.321929931641 " stroke="none" fill="none" stroke-width="0.6" stroke-opacity="0" />
  <path d="M182.812896728516,-255.229125976563 C182.812896728516,-242.13996887207 166.157897949219,-231.529113769531 145.612930297852,-231.529113769531 C125.067939758301,-231.529113769531 108.412925720215,-242.139953613281 108.412910461426,-255.229095458984 L108.412910461426,-255.229095458984 C108.412895202637,-268.318267822266 125.067886352539,-278.929107666016 145.612869262695,-278.929107666016 C166.157867431641,-278.929138183594 182.812881469727,-268.318298339844 182.812896728516,-255.229110717773 C182.812896728516,-255.229110717773 182.812896728516,-255.229110717773 182.812896728516,-255.229110717773 " stroke="none" fill="#E7E7E7" fill-rule="evenodd" stroke-width="0" fill-opacity="1" />
  <text x="17.6268558502197" y="36.8967208862305" dx="0" dy="0" font-family="Arial" font-size="7.20000017166138pt" fill="#000000" style="text-anchor:start" transform="matrix(0.750000 0.000000 0.000000 0.750000 108.41291809082 -278.929107666016)">Intersection</text>
  <path d="M182.812896728516,-255.229125976563 C182.812896728516,-242.13996887207 166.157897949219,-231.529113769531 145.612930297852,-231.529113769531 C125.067939758301,-231.529113769531 108.412925720215,-242.139953613281 108.412910461426,-255.229095458984 L108.412910461426,-255.229095458984 C108.412895202637,-268.318267822266 125.067886352539,-278.929107666016 145.612869262695,-278.929107666016 C166.157867431641,-278.929138183594 182.812881469727,-268.318298339844 182.812896728516,-255.229110717773 C182.812896728516,-255.229110717773 182.812896728516,-255.229110717773 182.812896728516,-255.229110717773 " stroke="none" fill="none" stroke-width="0.6" stroke-opacity="0" />
  <path d="M-86.3224639892578,-352.754089355469 L-7.76137542724609,-352.754089355469 L-7.76139831542969,-352.754089355469 C-3.06480407714844,-352.754119873047 0.742546081542969,-348.94677734375 0.7425537109375,-344.250183105469 C0.7425537109375,-344.250183105469 0.7425537109375,-344.250152587891 0.7425537109375,-344.250152587891 L0.742568969726563,-344.250152587891 L0.742568969726563,-298.805023193359 L0.7425537109375,-298.805023193359 C0.7425537109375,-294.108428955078 -3.06478881835938,-290.301086425781 -7.76137542724609,-290.301086425781 L-7.76137542724609,-290.301086425781 L-86.3224639892578,-290.301086425781 L-86.3224639892578,-290.301086425781 C-91.0190582275391,-290.301086425781 -94.8264007568359,-294.108428955078 -94.8264007568359,-298.805023193359 L-94.8264007568359,-298.805023193359 L-94.8264007568359,-344.250152587891 L-94.8264083862305,-344.250152587891 C-94.8264083862305,-348.946746826172 -91.0190734863281,-352.754089355469 -86.3224792480469,-352.754119873047 " stroke="none" fill="#E7E7E7" fill-rule="evenodd" stroke-width="0" fill-opacity="1" />
  <text x="21.7361888885498" y="33.1320724487305" dx="0" dy="0" font-family="Arial" font-size="7.20000017166138pt" fill="#000000" style="text-anchor:start" transform="matrix(0.750000 0.000000 0.000000 0.750000 -94.8264007568359 -352.754089355469)">Add Geometry </text>
  <text x="38.0728530883789" y="46.932071685791" dx="0" dy="0" font-family="Arial" font-size="7.20000017166138pt" fill="#000000" style="text-anchor:start" transform="matrix(0.750000 0.000000 0.000000 0.750000 -94.8264007568359 -352.754089355469)">Attribute </text>
  <text x="7.07685565948486" y="60.7320709228516" dx="0" dy="0" font-family="Arial" font-size="7.20000017166138pt" fill="#000000" style="text-anchor:start" transform="matrix(0.750000 0.000000 0.000000 0.750000 -94.8264007568359 -352.754089355469)">“AREA_GEODESIC”</text>
  <path d="M-86.3224639892578,-352.754089355469 L-7.76137542724609,-352.754089355469 L-7.76139831542969,-352.754089355469 C-3.06480407714844,-352.754119873047 0.742546081542969,-348.94677734375 0.7425537109375,-344.250183105469 C0.7425537109375,-344.250183105469 0.7425537109375,-344.250152587891 0.7425537109375,-344.250152587891 L0.742568969726563,-344.250152587891 L0.742568969726563,-298.805023193359 L0.7425537109375,-298.805023193359 C0.7425537109375,-294.108428955078 -3.06478881835938,-290.301086425781 -7.76137542724609,-290.301086425781 L-7.76137542724609,-290.301086425781 L-86.3224639892578,-290.301086425781 L-86.3224639892578,-290.301086425781 C-91.0190582275391,-290.301086425781 -94.8264007568359,-294.108428955078 -94.8264007568359,-298.805023193359 L-94.8264007568359,-298.805023193359 L-94.8264007568359,-344.250152587891 L-94.8264083862305,-344.250152587891 C-94.8264083862305,-348.946746826172 -91.0190734863281,-352.754089355469 -86.3224792480469,-352.754119873047 " stroke="none" fill="none" stroke-width="0.6" stroke-opacity="0" />
  <path d="M92.0791397094727,-319.819732666016 C92.0791397094727,-306.730590820313 75.4241333007813,-296.119720458984 54.8791694641113,-296.119720458984 C34.3341827392578,-296.119720458984 17.6791706085205,-306.730560302734 17.6791534423828,-319.819702148438 L17.6791515350342,-319.819702148438 C17.6791343688965,-332.908874511719 34.3341293334961,-343.519714355469 54.8791198730469,-343.519714355469 C75.4241104125977,-343.519744873047 92.0791168212891,-332.908905029297 92.0791397094727,-319.819732666016 C92.0791397094727,-319.819732666016 92.0791397094727,-319.819732666016 92.0791397094727,-319.819732666016 " stroke="none" fill="#E7E7E7" fill-rule="evenodd" stroke-width="0" fill-opacity="1" />
  <text x="1.27952229976654" y="23.0967178344727" dx="0" dy="0" font-family="Arial" font-size="7.20000017166138pt" fill="#000000" style="text-anchor:start" transform="matrix(0.750000 0.000000 0.000000 0.750000 17.6791572570801 -343.519714355469)">Polygons feature </text>
  <text x="7.62818908691406" y="36.8967208862305" dx="0" dy="0" font-family="Arial" font-size="7.20000017166138pt" fill="#000000" style="text-anchor:start" transform="matrix(0.750000 0.000000 0.000000 0.750000 17.6791572570801 -343.519714355469)">class with area </text>
  <text x="37.6335220336914" y="50.696720123291" dx="0" dy="0" font-family="Arial" font-size="7.20000017166138pt" fill="#000000" style="text-anchor:start" transform="matrix(0.750000 0.000000 0.000000 0.750000 17.6791572570801 -343.519714355469)">field</text>
  <path d="M92.0791397094727,-319.819732666016 C92.0791397094727,-306.730590820313 75.4241333007813,-296.119720458984 54.8791694641113,-296.119720458984 C34.3341827392578,-296.119720458984 17.6791706085205,-306.730560302734 17.6791534423828,-319.819702148438 L17.6791515350342,-319.819702148438 C17.6791343688965,-332.908874511719 34.3341293334961,-343.519714355469 54.8791198730469,-343.519714355469 C75.4241104125977,-343.519744873047 92.0791168212891,-332.908905029297 92.0791397094727,-319.819732666016 C92.0791397094727,-319.819732666016 92.0791397094727,-319.819732666016 92.0791397094727,-319.819732666016 " stroke="none" fill="none" stroke-width="0.6" stroke-opacity="0" />
  <path d="M210.395965576172,-278.721466064453 L267.7880859375,-278.721466064453 L267.788055419922,-278.721466064453 C272.484649658203,-278.721496582031 276.2919921875,-274.914154052734 276.2919921875,-270.217559814453 C276.2919921875,-270.217559814453 276.2919921875,-270.217529296875 276.2919921875,-270.217529296875 L276.292022705078,-270.217529296875 L276.292022705078,-239.825408935547 L276.2919921875,-239.825408935547 C276.2919921875,-235.128814697266 272.484680175781,-231.321472167969 267.7880859375,-231.321472167969 L267.7880859375,-231.321472167969 L210.395965576172,-231.321472167969 L210.395965576172,-231.321472167969 C205.699371337891,-231.321472167969 201.892028808594,-235.128814697266 201.892028808594,-239.825408935547 L201.892028808594,-270.217529296875 L201.892013549805,-270.217529296875 C201.892013549805,-274.914123535156 205.699356079102,-278.721466064453 210.395950317383,-278.721496582031 " stroke="none" fill="#E7E7E7" fill-rule="evenodd" stroke-width="0" fill-opacity="1" />
  <text x="7.62618923187256" y="23.0967178344727" dx="0" dy="0" font-family="Arial" font-size="7.20000017166138pt" fill="#000000" style="text-anchor:start" transform="matrix(0.750000 0.000000 0.000000 0.750000 201.892028808594 -278.721466064453)">Add Geometry </text>
  <text x="1.02618896961212" y="36.8967208862305" dx="0" dy="0" font-family="Arial" font-size="7.20000017166138pt" fill="#000000" style="text-anchor:start" transform="matrix(0.750000 0.000000 0.000000 0.750000 201.892028808594 -278.721466064453)">Attribute "Inter1", </text>
  <text x="5.64152240753174" y="50.696720123291" dx="0" dy="0" font-family="Arial" font-size="7.20000017166138pt" fill="#000000" style="text-anchor:start" transform="matrix(0.750000 0.000000 0.000000 0.750000 201.892028808594 -278.721466064453)">"Inter3", "Inter5"</text>
  <path d="M210.395965576172,-278.721466064453 L267.7880859375,-278.721466064453 L267.788055419922,-278.721466064453 C272.484649658203,-278.721496582031 276.2919921875,-274.914154052734 276.2919921875,-270.217559814453 C276.2919921875,-270.217559814453 276.2919921875,-270.217529296875 276.2919921875,-270.217529296875 L276.292022705078,-270.217529296875 L276.292022705078,-239.825408935547 L276.2919921875,-239.825408935547 C276.2919921875,-235.128814697266 272.484680175781,-231.321472167969 267.7880859375,-231.321472167969 L267.7880859375,-231.321472167969 L210.395965576172,-231.321472167969 L210.395965576172,-231.321472167969 C205.699371337891,-231.321472167969 201.892028808594,-235.128814697266 201.892028808594,-239.825408935547 L201.892028808594,-270.217529296875 L201.892013549805,-270.217529296875 C201.892013549805,-274.914123535156 205.699356079102,-278.721466064453 210.395950317383,-278.721496582031 " stroke="none" fill="none" stroke-width="0.6" stroke-opacity="0" />
  <path d="M368.969573974609,-253.417816162109 C368.969573974609,-240.328659057617 352.314575195313,-229.717803955078 331.769622802734,-229.717803955078 C311.224609375,-229.717803955078 294.569610595703,-240.328643798828 294.569580078125,-253.417785644531 L294.569580078125,-253.417785644531 C294.569580078125,-266.506958007813 311.224578857422,-277.117797851563 331.769561767578,-277.117797851563 C352.314544677734,-277.117828369141 368.969573974609,-266.506988525391 368.969573974609,-253.41780090332 C368.969573974609,-253.41780090332 368.969573974609,-253.41780090332 368.969573974609,-253.41780090332 " stroke="none" fill="#E7E7E7" fill-rule="evenodd" stroke-width="0" fill-opacity="1" />
  <text x="5.28685569763184" y="29.9967193603516" dx="0" dy="0" font-family="Arial" font-size="7.20000017166138pt" fill="#000000" style="text-anchor:start" transform="matrix(0.750000 0.000000 0.000000 0.750000 294.569610595703 -277.117797851563)">Intersection with </text>
  <text x="22.2921886444092" y="43.7967185974121" dx="0" dy="0" font-family="Arial" font-size="7.20000017166138pt" fill="#000000" style="text-anchor:start" transform="matrix(0.750000 0.000000 0.000000 0.750000 294.569610595703 -277.117797851563)">area field</text>
  <path d="M368.969573974609,-253.417816162109 C368.969573974609,-240.328659057617 352.314575195313,-229.717803955078 331.769622802734,-229.717803955078 C311.224609375,-229.717803955078 294.569610595703,-240.328643798828 294.569580078125,-253.417785644531 L294.569580078125,-253.417785644531 C294.569580078125,-266.506958007813 311.224578857422,-277.117797851563 331.769561767578,-277.117797851563 C352.314544677734,-277.117828369141 368.969573974609,-266.506988525391 368.969573974609,-253.41780090332 C368.969573974609,-253.41780090332 368.969573974609,-253.41780090332 368.969573974609,-253.41780090332 " stroke="none" fill="none" stroke-width="0.6" stroke-opacity="0" />
  <path d="M522.243774414063,-86.8882598876953 L579.635925292969,-86.8882598876953 L579.635864257813,-86.8882598876953 C584.332458496094,-86.8882675170898 588.139831542969,-83.0809326171875 588.139831542969,-78.3843307495117 C588.139831542969,-78.3843307495117 588.139831542969,-78.3843231201172 588.139831542969,-78.3843231201172 L588.139831542969,-78.3843231201172 L588.139831542969,-47.9921951293945 L588.139831542969,-47.9922027587891 C588.139831542969,-43.2956085205078 584.33251953125,-39.4882659912109 579.635925292969,-39.4882621765137 L579.635925292969,-39.4882621765137 L522.243774414063,-39.4882621765137 L522.243774414063,-39.4882621765137 C517.547180175781,-39.4882621765137 513.739868164063,-43.2956008911133 513.739868164063,-47.9921951293945 L513.739868164063,-78.3843231201172 L513.739807128906,-78.3843231201172 C513.739807128906,-83.0809173583984 517.547180175781,-86.8882598876953 522.243774414063,-86.8882675170898 " stroke="none" fill="#E7E7E7" fill-rule="evenodd" stroke-width="0" fill-opacity="1" />
  <text x="13.9528551101685" y="29.9967193603516" dx="0" dy="0" font-family="Arial" font-size="7.20000017166138pt" fill="#000000" style="text-anchor:start" transform="matrix(0.750000 0.000000 0.000000 0.750000 513.739868164063 -86.8882598876953)">Add percent </text>
  <text x="34.6335220336914" y="43.7967185974121" dx="0" dy="0" font-family="Arial" font-size="7.20000017166138pt" fill="#000000" style="text-anchor:start" transform="matrix(0.750000 0.000000 0.000000 0.750000 513.739868164063 -86.8882598876953)">fields</text>
  <path d="M522.243774414063,-86.8882598876953 L579.635925292969,-86.8882598876953 L579.635864257813,-86.8882598876953 C584.332458496094,-86.8882675170898 588.139831542969,-83.0809326171875 588.139831542969,-78.3843307495117 C588.139831542969,-78.3843307495117 588.139831542969,-78.3843231201172 588.139831542969,-78.3843231201172 L588.139831542969,-78.3843231201172 L588.139831542969,-47.9921951293945 L588.139831542969,-47.9922027587891 C588.139831542969,-43.2956085205078 584.33251953125,-39.4882659912109 579.635925292969,-39.4882621765137 L579.635925292969,-39.4882621765137 L522.243774414063,-39.4882621765137 L522.243774414063,-39.4882621765137 C517.547180175781,-39.4882621765137 513.739868164063,-43.2956008911133 513.739868164063,-47.9921951293945 L513.739868164063,-78.3843231201172 L513.739807128906,-78.3843231201172 C513.739807128906,-83.0809173583984 517.547180175781,-86.8882598876953 522.243774414063,-86.8882675170898 " stroke="none" fill="none" stroke-width="0.6" stroke-opacity="0" />
  <path d="M588.172119140625,-2.1584644317627 C588.172119140625,10.9306812286377 571.51708984375,21.5415363311768 550.97216796875,21.541540145874 C530.427124023438,21.5415439605713 513.772155761719,10.930700302124 513.772094726563,-2.15844345092773 L513.772094726563,-2.15843963623047 C513.772094726563,-15.2475891113281 530.427124023438,-25.8584499359131 550.972106933594,-25.8584575653076 C571.51708984375,-25.8584690093994 588.172119140625,-15.2476243972778 588.172119140625,-2.1584587097168 C588.172119140625,-2.1584587097168 588.172119140625,-2.1584587097168 588.172119140625,-2.1584587097168 " stroke="none" fill="#E7E7E7" fill-rule="evenodd" stroke-width="0" fill-opacity="1" />
  <text x="4.27952241897583" y="23.0967178344727" dx="0" dy="0" font-family="Arial" font-size="7.20000017166138pt" fill="#000000" style="text-anchor:start" transform="matrix(0.750000 0.000000 0.000000 0.750000 513.772155761719 -25.8584575653076)">Polygon feature </text>
  <text x="3.29485559463501" y="36.8967208862305" dx="0" dy="0" font-family="Arial" font-size="7.20000017166138pt" fill="#000000" style="text-anchor:start" transform="matrix(0.750000 0.000000 0.000000 0.750000 513.772155761719 -25.8584575653076)">class with empty </text>
  <text x="11.2855215072632" y="50.696720123291" dx="0" dy="0" font-family="Arial" font-size="7.20000017166138pt" fill="#000000" style="text-anchor:start" transform="matrix(0.750000 0.000000 0.000000 0.750000 513.772155761719 -25.8584575653076)">percent fields</text>
  <path d="M588.172119140625,-2.1584644317627 C588.172119140625,10.9306812286377 571.51708984375,21.5415363311768 550.97216796875,21.541540145874 C530.427124023438,21.5415439605713 513.772155761719,10.930700302124 513.772094726563,-2.15844345092773 L513.772094726563,-2.15843963623047 C513.772094726563,-15.2475891113281 530.427124023438,-25.8584499359131 550.972106933594,-25.8584575653076 C571.51708984375,-25.8584690093994 588.172119140625,-15.2476243972778 588.172119140625,-2.1584587097168 C588.172119140625,-2.1584587097168 588.172119140625,-2.1584587097168 588.172119140625,-2.1584587097168 " stroke="none" fill="none" stroke-width="0.6" stroke-opacity="0" />
  <path d="M358.706390380859,-41.9407653808594 L488.280700683594,-41.9407653808594 L488.280670166016,-41.9407653808594 C492.977294921875,-41.9407730102539 496.784637451172,-38.1334381103516 496.784637451172,-33.4368324279785 C496.784637451172,-33.4368324279785 496.784637451172,-33.4368286132813 496.784637451172,-33.4368286132813 L496.784637451172,-33.4368286132813 L496.784637451172,24.5091171264648 L496.784637451172,24.5091094970703 C496.784637451172,29.2057113647461 492.977294921875,33.0130462646484 488.280700683594,33.0130462646484 L488.280700683594,33.013053894043 L358.706390380859,33.013053894043 L358.706390380859,33.0130462646484 C354.009796142578,33.013053894043 350.202453613281,29.2057113647461 350.202453613281,24.5091171264648 L350.202453613281,-33.4368286132813 L350.202423095703,-33.436824798584 C350.202423095703,-38.1334190368652 354.009765625,-41.9407653808594 358.706359863281,-41.9407691955566 " stroke="none" fill="#E7E7E7" fill-rule="evenodd" stroke-width="0" fill-opacity="1" />
  <text x="31.7328567504883" y="48.3659324645996" dx="0" dy="0" font-family="Arial" font-size="7.20000017166138pt" fill="#000000" style="text-anchor:start" transform="matrix(0.750000 0.000000 0.000000 0.750000 350.202453613281 -41.9407653808594)">Calculate percent fields </text>
  <text x="3.88352251052856" y="62.1659355163574" dx="0" dy="0" font-family="Arial" font-size="7.20000017166138pt" fill="#000000" style="text-anchor:start" transform="matrix(0.750000 0.000000 0.000000 0.750000 350.202453613281 -41.9407653808594)">("inter_area"/"AREA_GEODESIC")</text>
  <path d="M358.706390380859,-41.9407653808594 L488.280700683594,-41.9407653808594 L488.280670166016,-41.9407653808594 C492.977294921875,-41.9407730102539 496.784637451172,-38.1334381103516 496.784637451172,-33.4368324279785 C496.784637451172,-33.4368324279785 496.784637451172,-33.4368286132813 496.784637451172,-33.4368286132813 L496.784637451172,-33.4368286132813 L496.784637451172,24.5091171264648 L496.784637451172,24.5091094970703 C496.784637451172,29.2057113647461 492.977294921875,33.0130462646484 488.280700683594,33.0130462646484 L488.280700683594,33.013053894043 L358.706390380859,33.013053894043 L358.706390380859,33.0130462646484 C354.009796142578,33.013053894043 350.202453613281,29.2057113647461 350.202453613281,24.5091171264648 L350.202453613281,-33.4368286132813 L350.202423095703,-33.436824798584 C350.202423095703,-38.1334190368652 354.009765625,-41.9407653808594 358.706359863281,-41.9407691955566 " stroke="none" fill="none" stroke-width="0.6" stroke-opacity="0" />
  <path d="M328.4599609375,-2.75912284851074 C328.4599609375,10.3300228118896 311.804962158203,20.9408779144287 291.260009765625,20.940881729126 C270.714996337891,20.9408855438232 254.059997558594,10.330041885376 254.059982299805,-2.75910186767578 L254.059982299805,-2.75909805297852 C254.059967041016,-15.8482475280762 270.714965820313,-26.4591083526611 291.259948730469,-26.4591159820557 C311.804931640625,-26.4591274261475 328.4599609375,-15.8482828140259 328.4599609375,-2.75911712646484 C328.4599609375,-2.75911712646484 328.4599609375,-2.75911712646484 328.4599609375,-2.75911712646484 " stroke="none" fill="#E7E7E7" fill-rule="evenodd" stroke-width="0" fill-opacity="1" />
  <text x="4.27952241897583" y="16.196720123291" dx="0" dy="0" font-family="Arial" font-size="7.20000017166138pt" fill="#000000" style="text-anchor:start" transform="matrix(0.750000 0.000000 0.000000 0.750000 254.059997558594 -26.4591159820557)">Polygon feature </text>
  <text x="21.3015232086182" y="29.9967193603516" dx="0" dy="0" font-family="Arial" font-size="7.20000017166138pt" fill="#000000" style="text-anchor:start" transform="matrix(0.750000 0.000000 0.000000 0.750000 254.059997558594 -26.4591159820557)">class with </text>
  <text x="20.6155223846436" y="43.7967185974121" dx="0" dy="0" font-family="Arial" font-size="7.20000017166138pt" fill="#000000" style="text-anchor:start" transform="matrix(0.750000 0.000000 0.000000 0.750000 254.059997558594 -26.4591159820557)">populated </text>
  <text x="11.2855215072632" y="57.5967178344727" dx="0" dy="0" font-family="Arial" font-size="7.20000017166138pt" fill="#000000" style="text-anchor:start" transform="matrix(0.750000 0.000000 0.000000 0.750000 254.059997558594 -26.4591159820557)">percent fields</text>
  <path d="M328.4599609375,-2.75912284851074 C328.4599609375,10.3300228118896 311.804962158203,20.9408779144287 291.260009765625,20.940881729126 C270.714996337891,20.9408855438232 254.059997558594,10.330041885376 254.059982299805,-2.75910186767578 L254.059982299805,-2.75909805297852 C254.059967041016,-15.8482475280762 270.714965820313,-26.4591083526611 291.259948730469,-26.4591159820557 C311.804931640625,-26.4591274261475 328.4599609375,-15.8482828140259 328.4599609375,-2.75911712646484 C328.4599609375,-2.75911712646484 328.4599609375,-2.75911712646484 328.4599609375,-2.75911712646484 " stroke="none" fill="none" stroke-width="0.6" stroke-opacity="0" />
  <path d="M-91.7336349487305,-189.300048828125 C-91.7336349487305,-176.210891723633 -108.388641357422,-165.600036621094 -128.933609008789,-165.600036621094 C-149.478607177734,-165.600036621094 -166.13362121582,-176.210876464844 -166.133636474609,-189.300018310547 L-166.133636474609,-189.300018310547 C-166.133651733398,-202.389175415039 -149.478652954102,-213.000030517578 -128.933670043945,-213.000030517578 C-108.388671875,-213.000045776367 -91.7336578369141,-202.389205932617 -91.7336349487305,-189.300033569336 C-91.7336349487305,-189.300033569336 -91.7336349487305,-189.300033569336 -91.7336349487305,-189.300033569336 " stroke="none" fill="#70AECC" fill-rule="evenodd" stroke-width="0" fill-opacity="1" />
  <text x="18.2928562164307" y="29.9967193603516" dx="0" dy="0" font-family="Arial" font-size="7.20000017166138pt" fill="#000000" style="text-anchor:start" transform="matrix(0.750000 0.000000 0.000000 0.750000 -166.13362121582 -213.000030517578)">Sites point </text>
  <text x="23.2915229797363" y="43.7967185974121" dx="0" dy="0" font-family="Arial" font-size="7.20000017166138pt" fill="#000000" style="text-anchor:start" transform="matrix(0.750000 0.000000 0.000000 0.750000 -166.13362121582 -213.000030517578)">shapefile</text>
  <path d="M-91.7336349487305,-189.300048828125 C-91.7336349487305,-176.210891723633 -108.388641357422,-165.600036621094 -128.933609008789,-165.600036621094 C-149.478607177734,-165.600036621094 -166.13362121582,-176.210876464844 -166.133636474609,-189.300018310547 L-166.133636474609,-189.300018310547 C-166.133651733398,-202.389175415039 -149.478652954102,-213.000030517578 -128.933670043945,-213.000030517578 C-108.388671875,-213.000045776367 -91.7336578369141,-202.389205932617 -91.7336349487305,-189.300033569336 C-91.7336349487305,-189.300033569336 -91.7336349487305,-189.300033569336 -91.7336349487305,-189.300033569336 " stroke="none" fill="none" stroke-width="0.6" stroke-opacity="0" />
  <path d="M-112.876457214355,-321.16455078125 C-112.876457214355,-308.075408935547 -129.531463623047,-297.464538574219 -150.076431274414,-297.464538574219 C-170.621429443359,-297.464538574219 -187.276443481445,-308.075378417969 -187.276458740234,-321.164520263672 L-187.276458740234,-321.164520263672 C-187.276473999023,-334.253692626953 -170.621475219727,-344.864532470703 -150.07649230957,-344.864532470703 C-129.531494140625,-344.864562988281 -112.876480102539,-334.253723144531 -112.876457214355,-321.16455078125 C-112.876457214355,-321.16455078125 -112.876457214355,-321.16455078125 -112.876457214355,-321.16455078125 " stroke="none" fill="#70AECC" fill-rule="evenodd" stroke-width="0" fill-opacity="1" />
  <text x="21.6261901855469" y="29.9967193603516" dx="0" dy="0" font-family="Arial" font-size="7.20000017166138pt" fill="#000000" style="text-anchor:start" transform="matrix(0.750000 0.000000 0.000000 0.750000 -187.276443481445 -344.864532470703)">Polygons </text>
  <text x="23.2915229797363" y="43.7967185974121" dx="0" dy="0" font-family="Arial" font-size="7.20000017166138pt" fill="#000000" style="text-anchor:start" transform="matrix(0.750000 0.000000 0.000000 0.750000 -187.276443481445 -344.864532470703)">shapefile</text>
  <path d="M-112.876457214355,-321.16455078125 C-112.876457214355,-308.075408935547 -129.531463623047,-297.464538574219 -150.076431274414,-297.464538574219 C-170.621429443359,-297.464538574219 -187.276443481445,-308.075378417969 -187.276458740234,-321.164520263672 L-187.276458740234,-321.164520263672 C-187.276473999023,-334.253692626953 -170.621475219727,-344.864532470703 -150.07649230957,-344.864532470703 C-129.531494140625,-344.864562988281 -112.876480102539,-334.253723144531 -112.876457214355,-321.16455078125 C-112.876457214355,-321.16455078125 -112.876457214355,-321.16455078125 -112.876457214355,-321.16455078125 " stroke="none" fill="none" stroke-width="0.6" stroke-opacity="0" />
  <path d="M290.879516601563,-217.017150878906 L369.290954589844,-217.017150878906 L369.290954589844,-217.017150878906 C373.987548828125,-217.017166137695 377.794891357422,-213.209823608398 377.794891357422,-208.513229370117 C377.794891357422,-208.513229370117 377.794891357422,-208.513214111328 377.794891357422,-208.513214111328 L377.794891357422,-208.513214111328 L377.794891357422,-163.779174804688 L377.794891357422,-163.779174804688 C377.794891357422,-159.082580566406 373.987548828125,-155.275238037109 369.290954589844,-155.275238037109 L369.290954589844,-155.275238037109 L290.879516601563,-155.275238037109 L290.879516601563,-155.275238037109 C286.182922363281,-155.275238037109 282.375579833984,-159.082580566406 282.375579833984,-163.779174804688 L282.375579833984,-208.513214111328 L282.375549316406,-208.513214111328 C282.375549316406,-213.209808349609 286.182891845703,-217.017150878906 290.879486083984,-217.017166137695 " stroke="none" fill="#E7E7E7" fill-rule="evenodd" stroke-width="0" fill-opacity="1" />
  <text x="8.96952152252197" y="25.757999420166" dx="0" dy="0" font-family="Arial" font-size="7.20000017166138pt" fill="#000000" style="text-anchor:start" transform="matrix(0.750000 0.000000 0.000000 0.750000 282.375579833984 -217.017150878906)">Create dictionary &amp; </text>
  <text x="6.63218927383423" y="39.5579986572266" dx="0" dy="0" font-family="Arial" font-size="7.20000017166138pt" fill="#000000" style="text-anchor:start" transform="matrix(0.750000 0.000000 0.000000 0.750000 282.375579833984 -217.017150878906)">use search cursor to </text>
  <text x="20.9621887207031" y="53.3580017089844" dx="0" dy="0" font-family="Arial" font-size="7.20000017166138pt" fill="#000000" style="text-anchor:start" transform="matrix(0.750000 0.000000 0.000000 0.750000 282.375579833984 -217.017150878906)">populate it with </text>
  <text x="13.9521884918213" y="67.1580047607422" dx="0" dy="0" font-family="Arial" font-size="7.20000017166138pt" fill="#000000" style="text-anchor:start" transform="matrix(0.750000 0.000000 0.000000 0.750000 282.375579833984 -217.017150878906)">aggregated areas</text>
  <path d="M290.879516601563,-217.017150878906 L369.290954589844,-217.017150878906 L369.290954589844,-217.017150878906 C373.987548828125,-217.017166137695 377.794891357422,-213.209823608398 377.794891357422,-208.513229370117 C377.794891357422,-208.513229370117 377.794891357422,-208.513214111328 377.794891357422,-208.513214111328 L377.794891357422,-208.513214111328 L377.794891357422,-163.779174804688 L377.794891357422,-163.779174804688 C377.794891357422,-159.082580566406 373.987548828125,-155.275238037109 369.290954589844,-155.275238037109 L369.290954589844,-155.275238037109 L290.879516601563,-155.275238037109 L290.879516601563,-155.275238037109 C286.182922363281,-155.275238037109 282.375579833984,-159.082580566406 282.375579833984,-163.779174804688 L282.375579833984,-208.513214111328 L282.375549316406,-208.513214111328 C282.375549316406,-213.209808349609 286.182891845703,-217.017150878906 290.879486083984,-217.017166137695 " stroke="none" fill="none" stroke-width="0.6" stroke-opacity="0" />
  <path d="M471.162658691406,-186.100570678711 C471.162658691406,-173.011413574219 454.507659912109,-162.40055847168 433.962707519531,-162.40055847168 C413.417694091797,-162.40055847168 396.7626953125,-173.01139831543 396.762664794922,-186.100540161133 L396.762664794922,-186.100540161133 C396.762664794922,-199.189697265625 413.417663574219,-209.800552368164 433.962646484375,-209.800552368164 C454.507629394531,-209.800567626953 471.162658691406,-199.189727783203 471.162658691406,-186.100555419922 C471.162658691406,-186.100555419922 471.162658691406,-186.100555419922 471.162658691406,-186.100555419922 " stroke="none" fill="#E7E7E7" fill-rule="evenodd" stroke-width="0" fill-opacity="1" />
  <text x="19.3028564453125" y="36.8967208862305" dx="0" dy="0" font-family="Arial" font-size="7.20000017166138pt" fill="#000000" style="text-anchor:start" transform="matrix(0.750000 0.000000 0.000000 0.750000 396.7626953125 -209.800552368164)">Dictionary</text>
  <path d="M471.162658691406,-186.100570678711 C471.162658691406,-173.011413574219 454.507659912109,-162.40055847168 433.962707519531,-162.40055847168 C413.417694091797,-162.40055847168 396.7626953125,-173.01139831543 396.762664794922,-186.100540161133 L396.762664794922,-186.100540161133 C396.762664794922,-199.189697265625 413.417663574219,-209.800552368164 433.962646484375,-209.800552368164 C454.507629394531,-209.800567626953 471.162658691406,-199.189727783203 471.162658691406,-186.100555419922 C471.162658691406,-186.100555419922 471.162658691406,-186.100555419922 471.162658691406,-186.100555419922 " stroke="none" fill="none" stroke-width="0.6" stroke-opacity="0" />
  <path d="M406.750518798828,-276.857147216797 L464.142639160156,-276.857147216797 L464.142608642578,-276.857147216797 C468.839202880859,-276.857177734375 472.646545410156,-273.049835205078 472.646545410156,-268.353240966797 C472.646545410156,-268.353240966797 472.646545410156,-268.353210449219 472.646545410156,-268.353210449219 L472.646575927734,-268.353210449219 L472.646575927734,-237.961090087891 L472.646545410156,-237.961090087891 C472.646545410156,-233.264495849609 468.839233398438,-229.457153320313 464.142639160156,-229.457153320313 L464.142639160156,-229.457153320313 L406.750518798828,-229.457153320313 L406.750518798828,-229.457153320313 C402.053924560547,-229.457153320313 398.24658203125,-233.264495849609 398.24658203125,-237.961090087891 L398.24658203125,-268.353210449219 L398.246551513672,-268.353210449219 C398.246551513672,-273.0498046875 402.053894042969,-276.857147216797 406.75048828125,-276.857177734375 " stroke="none" fill="#E7E7E7" fill-rule="evenodd" stroke-width="0" fill-opacity="1" />
  <text x="2.95285558700562" y="29.9967193603516" dx="0" dy="0" font-family="Arial" font-size="7.20000017166138pt" fill="#000000" style="text-anchor:start" transform="matrix(0.750000 0.000000 0.000000 0.750000 398.24658203125 -276.857147216797)">Add “inter_area” </text>
  <text x="34.6335220336914" y="43.7967185974121" dx="0" dy="0" font-family="Arial" font-size="7.20000017166138pt" fill="#000000" style="text-anchor:start" transform="matrix(0.750000 0.000000 0.000000 0.750000 398.24658203125 -276.857147216797)">fields</text>
  <path d="M406.750518798828,-276.857147216797 L464.142639160156,-276.857147216797 L464.142608642578,-276.857147216797 C468.839202880859,-276.857177734375 472.646545410156,-273.049835205078 472.646545410156,-268.353240966797 C472.646545410156,-268.353240966797 472.646545410156,-268.353210449219 472.646545410156,-268.353210449219 L472.646575927734,-268.353210449219 L472.646575927734,-237.961090087891 L472.646545410156,-237.961090087891 C472.646545410156,-233.264495849609 468.839233398438,-229.457153320313 464.142639160156,-229.457153320313 L464.142639160156,-229.457153320313 L406.750518798828,-229.457153320313 L406.750518798828,-229.457153320313 C402.053924560547,-229.457153320313 398.24658203125,-233.264495849609 398.24658203125,-237.961090087891 L398.24658203125,-268.353210449219 L398.246551513672,-268.353210449219 C398.246551513672,-273.0498046875 402.053894042969,-276.857147216797 406.75048828125,-276.857177734375 " stroke="none" fill="none" stroke-width="0.6" stroke-opacity="0" />
  <path d="M587.225524902344,-252.355316162109 C587.225524902344,-239.266159057617 570.570495605469,-228.655303955078 550.025573730469,-228.655303955078 C529.480529785156,-228.655303955078 512.825561523438,-239.266143798828 512.825500488281,-252.355285644531 L512.825500488281,-252.355285644531 C512.825500488281,-265.444458007813 529.480529785156,-276.055297851563 550.025512695313,-276.055297851563 C570.570495605469,-276.055328369141 587.225524902344,-265.444488525391 587.225524902344,-252.35530090332 C587.225524902344,-252.35530090332 587.225524902344,-252.35530090332 587.225524902344,-252.35530090332 " stroke="none" fill="#E7E7E7" fill-rule="evenodd" stroke-width="0" fill-opacity="1" />
  <text x="5.28685569763184" y="23.0967178344727" dx="0" dy="0" font-family="Arial" font-size="7.20000017166138pt" fill="#000000" style="text-anchor:start" transform="matrix(0.750000 0.000000 0.000000 0.750000 512.825561523438 -276.055297851563)">Intersection with </text>
  <text x="30.6321887969971" y="36.8967208862305" dx="0" dy="0" font-family="Arial" font-size="7.20000017166138pt" fill="#000000" style="text-anchor:start" transform="matrix(0.750000 0.000000 0.000000 0.750000 512.825561523438 -276.055297851563)">empty </text>
  <text x="4.62352228164673" y="50.696720123291" dx="0" dy="0" font-family="Arial" font-size="7.20000017166138pt" fill="#000000" style="text-anchor:start" transform="matrix(0.750000 0.000000 0.000000 0.750000 512.825561523438 -276.055297851563)">“inter_area” field</text>
  <path d="M587.225524902344,-252.355316162109 C587.225524902344,-239.266159057617 570.570495605469,-228.655303955078 550.025573730469,-228.655303955078 C529.480529785156,-228.655303955078 512.825561523438,-239.266143798828 512.825500488281,-252.355285644531 L512.825500488281,-252.355285644531 C512.825500488281,-265.444458007813 529.480529785156,-276.055297851563 550.025512695313,-276.055297851563 C570.570495605469,-276.055328369141 587.225524902344,-265.444488525391 587.225524902344,-252.35530090332 C587.225524902344,-252.35530090332 587.225524902344,-252.35530090332 587.225524902344,-252.35530090332 " stroke="none" fill="none" stroke-width="0.6" stroke-opacity="0" />
  <path d="M520.814514160156,-210.497680664063 L578.206665039063,-210.497680664063 L578.206604003906,-210.497680664063 C582.903198242188,-210.497695922852 586.710571289063,-206.690353393555 586.710571289063,-201.993759155273 C586.710571289063,-201.993759155273 586.710571289063,-201.993743896484 586.710571289063,-201.993743896484 L586.710571289063,-201.993743896484 L586.710571289063,-171.601623535156 L586.710571289063,-171.601623535156 C586.710571289063,-166.905029296875 582.903259277344,-163.097686767578 578.206665039063,-163.097686767578 L578.206665039063,-163.097686767578 L520.814514160156,-163.097686767578 L520.814514160156,-163.097686767578 C516.117919921875,-163.097686767578 512.310607910156,-166.905029296875 512.310607910156,-171.601623535156 L512.310607910156,-201.993743896484 L512.310546875,-201.993743896484 C512.310546875,-206.690338134766 516.117919921875,-210.497680664063 520.814514160156,-210.497695922852 " stroke="none" fill="#E7E7E7" fill-rule="evenodd" stroke-width="0" fill-opacity="1" />
  <text x="14.2928552627563" y="16.196720123291" dx="0" dy="0" font-family="Arial" font-size="7.20000017166138pt" fill="#000000" style="text-anchor:start" transform="matrix(0.750000 0.000000 0.000000 0.750000 512.310607910156 -210.497680664063)">Use Update </text>
  <text x="23.968189239502" y="29.9967193603516" dx="0" dy="0" font-family="Arial" font-size="7.20000017166138pt" fill="#000000" style="text-anchor:start" transform="matrix(0.750000 0.000000 0.000000 0.750000 512.310607910156 -210.497680664063)">cursor to </text>
  <text x="13.9455223083496" y="43.7967185974121" dx="0" dy="0" font-family="Arial" font-size="7.20000017166138pt" fill="#000000" style="text-anchor:start" transform="matrix(0.750000 0.000000 0.000000 0.750000 512.310607910156 -210.497680664063)">populate the </text>
  <text x="4.62352228164673" y="57.5967178344727" dx="0" dy="0" font-family="Arial" font-size="7.20000017166138pt" fill="#000000" style="text-anchor:start" transform="matrix(0.750000 0.000000 0.000000 0.750000 512.310607910156 -210.497680664063)">“inter_area” field</text>
  <path d="M520.814514160156,-210.497680664063 L578.206665039063,-210.497680664063 L578.206604003906,-210.497680664063 C582.903198242188,-210.497695922852 586.710571289063,-206.690353393555 586.710571289063,-201.993759155273 C586.710571289063,-201.993759155273 586.710571289063,-201.993743896484 586.710571289063,-201.993743896484 L586.710571289063,-201.993743896484 L586.710571289063,-171.601623535156 L586.710571289063,-171.601623535156 C586.710571289063,-166.905029296875 582.903259277344,-163.097686767578 578.206665039063,-163.097686767578 L578.206665039063,-163.097686767578 L520.814514160156,-163.097686767578 L520.814514160156,-163.097686767578 C516.117919921875,-163.097686767578 512.310607910156,-166.905029296875 512.310607910156,-171.601623535156 L512.310607910156,-201.993743896484 L512.310546875,-201.993743896484 C512.310546875,-206.690338134766 516.117919921875,-210.497680664063 520.814514160156,-210.497695922852 " stroke="none" fill="none" stroke-width="0.6" stroke-opacity="0" />
  <path d="M591.253601074219,-125.666519165039 C591.253601074219,-111.346183776855 573.059265136719,-99.7372589111328 550.615417480469,-99.7372589111328 C528.171569824219,-99.7372512817383 509.977233886719,-111.346176147461 509.977233886719,-125.666511535645 C509.977233886719,-125.666511535645 509.977233886719,-125.666511535645 509.977233886719,-125.666511535645 L509.977203369141,-125.666488647461 C509.977203369141,-139.986831665039 528.171508789063,-151.595764160156 550.615356445313,-151.595764160156 C573.059204101563,-151.595779418945 591.253601074219,-139.986862182617 591.253601074219,-125.666511535645 C591.253601074219,-125.666511535645 591.253601074219,-125.666511535645 591.253601074219,-125.666511535645 " stroke="none" fill="#E7E7E7" fill-rule="evenodd" stroke-width="0" fill-opacity="1" />
  <text x="8.86285495758057" y="19.169059753418" dx="0" dy="0" font-family="Arial" font-size="7.20000017166138pt" fill="#000000" style="text-anchor:start" transform="matrix(0.750000 0.000000 0.000000 0.750000 509.977233886719 -151.595764160156)">Polygon feature </text>
  <text x="25.8848571777344" y="32.9690589904785" dx="0" dy="0" font-family="Arial" font-size="7.20000017166138pt" fill="#000000" style="text-anchor:start" transform="matrix(0.750000 0.000000 0.000000 0.750000 509.977233886719 -151.595764160156)">class with </text>
  <text x="25.1988563537598" y="46.7690582275391" dx="0" dy="0" font-family="Arial" font-size="7.20000017166138pt" fill="#000000" style="text-anchor:start" transform="matrix(0.750000 0.000000 0.000000 0.750000 509.977233886719 -151.595764160156)">populated </text>
  <text x="6.20685577392578" y="60.5690612792969" dx="0" dy="0" font-family="Arial" font-size="7.20000017166138pt" fill="#000000" style="text-anchor:start" transform="matrix(0.750000 0.000000 0.000000 0.750000 509.977233886719 -151.595764160156)">“inter_area” fields</text>
  <path d="M591.253601074219,-125.666519165039 C591.253601074219,-111.346183776855 573.059265136719,-99.7372589111328 550.615417480469,-99.7372589111328 C528.171569824219,-99.7372512817383 509.977233886719,-111.346176147461 509.977233886719,-125.666511535645 C509.977233886719,-125.666511535645 509.977233886719,-125.666511535645 509.977233886719,-125.666511535645 L509.977203369141,-125.666488647461 C509.977203369141,-139.986831665039 528.171508789063,-151.595764160156 550.615356445313,-151.595764160156 C573.059204101563,-151.595779418945 591.253601074219,-139.986862182617 591.253601074219,-125.666511535645 C591.253601074219,-125.666511535645 591.253601074219,-125.666511535645 591.253601074219,-125.666511535645 " stroke="none" fill="none" stroke-width="0.6" stroke-opacity="0" />
  <path d="M166.706085205078,-26.3138256072998 L224.098205566406,-26.3138256072998 L224.098190307617,-26.3138256072998 C228.794769287109,-26.3138332366943 232.602127075195,-22.506498336792 232.602127075195,-17.8098926544189 C232.602127075195,-17.8098907470703 232.602127075195,-17.8098888397217 232.602127075195,-17.809886932373 L232.602142333984,-17.8098888397217 L232.602142333984,12.582239151001 L232.602127075195,12.5822315216064 C232.602127075195,17.2788257598877 228.794799804688,21.0861682891846 224.098205566406,21.0861721038818 L224.098205566406,21.0861721038818 L166.706085205078,21.0861721038818 L166.706085205078,21.0861721038818 C162.009490966797,21.0861721038818 158.2021484375,17.2788333892822 158.2021484375,12.582239151001 L158.2021484375,-17.8098888397217 L158.202133178711,-17.8098850250244 C158.202133178711,-22.5064792633057 162.009475708008,-26.3138236999512 166.706069946289,-26.3138275146484 " stroke="none" fill="#E7E7E7" fill-rule="evenodd" stroke-width="0" fill-opacity="1" />
  <text x="20.6281890869141" y="23.0967178344727" dx="0" dy="0" font-family="Arial" font-size="7.20000017166138pt" fill="#000000" style="text-anchor:start" transform="matrix(0.750000 0.000000 0.000000 0.750000 158.2021484375 -26.3138256072998)">Join solid, </text>
  <text x="9.62152194976807" y="36.8967208862305" dx="0" dy="0" font-family="Arial" font-size="7.20000017166138pt" fill="#000000" style="text-anchor:start" transform="matrix(0.750000 0.000000 0.000000 0.750000 158.2021484375 -26.3138256072998)">contaminated, </text>
  <text x="3.60552215576172" y="50.696720123291" dx="0" dy="0" font-family="Arial" font-size="7.20000017166138pt" fill="#000000" style="text-anchor:start" transform="matrix(0.750000 0.000000 0.000000 0.750000 158.2021484375 -26.3138256072998)">and tabular data</text>
  <path d="M166.706085205078,-26.3138256072998 L224.098205566406,-26.3138256072998 L224.098190307617,-26.3138256072998 C228.794769287109,-26.3138332366943 232.602127075195,-22.506498336792 232.602127075195,-17.8098926544189 C232.602127075195,-17.8098907470703 232.602127075195,-17.8098888397217 232.602127075195,-17.809886932373 L232.602142333984,-17.8098888397217 L232.602142333984,12.582239151001 L232.602127075195,12.5822315216064 C232.602127075195,17.2788257598877 228.794799804688,21.0861682891846 224.098205566406,21.0861721038818 L224.098205566406,21.0861721038818 L166.706085205078,21.0861721038818 L166.706085205078,21.0861721038818 C162.009490966797,21.0861721038818 158.2021484375,17.2788333892822 158.2021484375,12.582239151001 L158.2021484375,-17.8098888397217 L158.202133178711,-17.8098850250244 C158.202133178711,-22.5064792633057 162.009475708008,-26.3138236999512 166.706069946289,-26.3138275146484 " stroke="none" fill="none" stroke-width="0.6" stroke-opacity="0" />
  <path d="M135.453628540039,-2.66912269592285 C135.453628540039,10.4200229644775 118.798622131348,21.0308780670166 98.2536544799805,21.0308818817139 C77.7086639404297,21.0308856964111 61.053653717041,10.4200420379639 61.053638458252,-2.66910171508789 L61.0536346435547,-2.66909790039063 C61.0536193847656,-15.7582473754883 77.708610534668,-26.3691082000732 98.2536010742188,-26.3691158294678 C118.79859161377,-26.3691272735596 135.453598022461,-15.758282661438 135.453628540039,-2.66911697387695 C135.453628540039,-2.66911697387695 135.453628540039,-2.66911697387695 135.453628540039,-2.66911697387695 " stroke="none" fill="#E7E7E7" fill-rule="evenodd" stroke-width="0" fill-opacity="1" />
  <text x="20.2961902618408" y="29.9967193603516" dx="0" dy="0" font-family="Arial" font-size="7.20000017166138pt" fill="#000000" style="text-anchor:start" transform="matrix(0.750000 0.000000 0.000000 0.750000 61.0536422729492 -26.3691158294678)">Complete </text>
  <text x="27.2921886444092" y="43.7967185974121" dx="0" dy="0" font-family="Arial" font-size="7.20000017166138pt" fill="#000000" style="text-anchor:start" transform="matrix(0.750000 0.000000 0.000000 0.750000 61.0536422729492 -26.3691158294678)">dataset</text>
  <path d="M135.453628540039,-2.66912269592285 C135.453628540039,10.4200229644775 118.798622131348,21.0308780670166 98.2536544799805,21.0308818817139 C77.7086639404297,21.0308856964111 61.053653717041,10.4200420379639 61.053638458252,-2.66910171508789 L61.0536346435547,-2.66909790039063 C61.0536193847656,-15.7582473754883 77.708610534668,-26.3691082000732 98.2536010742188,-26.3691158294678 C118.79859161377,-26.3691272735596 135.453598022461,-15.758282661438 135.453628540039,-2.66911697387695 C135.453628540039,-2.66911697387695 135.453628540039,-2.66911697387695 135.453628540039,-2.66911697387695 " stroke="none" fill="none" stroke-width="0.6" stroke-opacity="0" />
  <path d="M-42.366382598877,-33.1145286560059 L26.3243141174316,-33.1145286560059 L26.324291229248,-33.1145286560059 C31.0208854675293,-33.1145362854004 34.8282356262207,-29.307201385498 34.8282432556152,-24.610595703125 C34.8282432556152,-24.6105937957764 34.8282432556152,-24.6105918884277 34.8282432556152,-24.6105899810791 L34.8282508850098,-24.6105918884277 L34.8282508850098,18.9027481079102 L34.8282432556152,18.9027366638184 C34.8282432556152,23.5993347167969 31.0209007263184,27.4066734313965 26.3243141174316,27.4066734313965 L26.3243141174316,27.406681060791 L-42.366382598877,27.406681060791 L-42.3663787841797,27.4066734313965 C-47.0629730224609,27.406681060791 -50.8703193664551,23.5993385314941 -50.8703193664551,18.9027404785156 L-50.8703193664551,18.9027481079102 L-50.8703193664551,-24.6105918884277 L-50.8703231811523,-24.6105880737305 C-50.8703269958496,-29.3071823120117 -47.06298828125,-33.1145286560059 -42.3663940429688,-33.1145324707031 " stroke="none" fill="#E7E7E7" fill-rule="evenodd" stroke-width="0" fill-opacity="1" />
  <text x="11.1561889648438" y="18.0441932678223" dx="0" dy="0" font-family="Arial" font-size="7.20000017166138pt" fill="#000000" style="text-anchor:start" transform="matrix(0.750000 0.000000 0.000000 0.750000 -50.8703193664551 -33.1145286560059)">Run exploratory </text>
  <text x="16.1501884460449" y="31.8441925048828" dx="0" dy="0" font-family="Arial" font-size="7.20000017166138pt" fill="#000000" style="text-anchor:start" transform="matrix(0.750000 0.000000 0.000000 0.750000 -50.8703193664551 -33.1145286560059)">regression and </text>
  <text x="37.4948539733887" y="45.6441917419434" dx="0" dy="0" font-family="Arial" font-size="7.20000017166138pt" fill="#000000" style="text-anchor:start" transform="matrix(0.750000 0.000000 0.000000 0.750000 -50.8703193664551 -33.1145286560059)">spatial </text>
  <text x="14.8121891021729" y="59.4441947937012" dx="0" dy="0" font-family="Arial" font-size="7.20000017166138pt" fill="#000000" style="text-anchor:start" transform="matrix(0.750000 0.000000 0.000000 0.750000 -50.8703193664551 -33.1145286560059)">autocorrelation </text>
  <text x="43.500186920166" y="73.2441940307617" dx="0" dy="0" font-family="Arial" font-size="7.20000017166138pt" fill="#000000" style="text-anchor:start" transform="matrix(0.750000 0.000000 0.000000 0.750000 -50.8703193664551 -33.1145286560059)">tools</text>
  <path d="M-42.366382598877,-33.1145286560059 L26.3243141174316,-33.1145286560059 L26.324291229248,-33.1145286560059 C31.0208854675293,-33.1145362854004 34.8282356262207,-29.307201385498 34.8282432556152,-24.610595703125 C34.8282432556152,-24.6105937957764 34.8282432556152,-24.6105918884277 34.8282432556152,-24.6105899810791 L34.8282508850098,-24.6105918884277 L34.8282508850098,18.9027481079102 L34.8282432556152,18.9027366638184 C34.8282432556152,23.5993347167969 31.0209007263184,27.4066734313965 26.3243141174316,27.4066734313965 L26.3243141174316,27.406681060791 L-42.366382598877,27.406681060791 L-42.3663787841797,27.4066734313965 C-47.0629730224609,27.406681060791 -50.8703193664551,23.5993385314941 -50.8703193664551,18.9027404785156 L-50.8703193664551,18.9027481079102 L-50.8703193664551,-24.6105918884277 L-50.8703231811523,-24.6105880737305 C-50.8703269958496,-29.3071823120117 -47.06298828125,-33.1145286560059 -42.3663940429688,-33.1145324707031 " stroke="none" fill="none" stroke-width="0.6" stroke-opacity="0" />
  <path d="M-73.6188430786133,-2.90378952026367 C-73.6188430786133,10.1853561401367 -90.2738494873047,20.7962112426758 -110.818817138672,20.796215057373 C-131.363815307617,20.7962188720703 -148.018829345703,10.185375213623 -148.018844604492,-2.90376853942871 L-148.018844604492,-2.90376472473145 C-148.018859863281,-15.9929141998291 -131.363861083984,-26.6037750244141 -110.818870544434,-26.6037826538086 C-90.2738800048828,-26.6037940979004 -73.6188659667969,-15.9929494857788 -73.6188430786133,-2.90378379821777 C-73.6188430786133,-2.90378379821777 -73.6188430786133,-2.90378379821777 -73.6188430786133,-2.90378379821777 " stroke="none" fill="#E7E7E7" fill-rule="evenodd" stroke-width="0" fill-opacity="1" />
  <text x="9.95885562896729" y="36.8967208862305" dx="0" dy="0" font-family="Arial" font-size="7.20000017166138pt" fill="#000000" style="text-anchor:start" transform="matrix(0.750000 0.000000 0.000000 0.750000 -148.018829345703 -26.6037826538086)">Final Analysis</text>
  <path d="M-73.6188430786133,-2.90378952026367 C-73.6188430786133,10.1853561401367 -90.2738494873047,20.7962112426758 -110.818817138672,20.796215057373 C-131.363815307617,20.7962188720703 -148.018829345703,10.185375213623 -148.018844604492,-2.90376853942871 L-148.018844604492,-2.90376472473145 C-148.018859863281,-15.9929141998291 -131.363861083984,-26.6037750244141 -110.818870544434,-26.6037826538086 C-90.2738800048828,-26.6037940979004 -73.6188659667969,-15.9929494857788 -73.6188430786133,-2.90378379821777 C-73.6188430786133,-2.90378379821777 -73.6188430786133,-2.90378379821777 -73.6188430786133,-2.90378379821777 " stroke="none" fill="none" stroke-width="0.6" stroke-opacity="0" />
</svg>